<svg xmlns="http://www.w3.org/2000/svg" viewBox="0 0 100 100">
  <rect width="100" height="100" rx="14" fill="#0B2540"/>
  <g transform="translate(6, 18.8) scale(0.1673)">
    <path d="M86.34 0.187677C89.9263 -0.294845 94.9629 0.311888 98.5859 0.257225C103.158 0.150761 107.726 0.114699 112.299 0.0866516C128.464 -0.0132299 144.474 -0.0338329 160.621 0.594075C169.898 0.954679 179.911 0.68365 189.238 0.625552L366.671 0.627273L429.057 0.63557C438.625 0.638432 448.208 0.573186 457.759 0.600661C466.005 0.624415 473.513 1.71166 480.415 6.4991C488.902 12.3875 491.119 24.351 486.584 33.3755C479.122 48.2264 470.46 62.9327 462.008 77.247L429.02 134.296L399.588 185.09C397.502 188.681 395.496 192.322 393.576 196.005C391.837 199.393 389.934 203.638 387.797 206.66C392.383 206.557 396.106 205.401 400.644 204.768C431.498 200.464 462.909 191.426 491.062 178.074C500.562 173.568 508.064 168.444 515.123 160.676C517.209 158.381 519.89 150.653 523.386 151.235C524.396 151.838 525.117 152.909 525.278 154.06C527.029 166.545 510.768 179.278 502.224 185.536C474.369 205.942 440.989 215.123 407.958 223.022C402.919 223.488 395.545 225.904 390.349 226.759C388.094 227.128 374.806 229.212 373.965 230.091C367.699 236.662 363.232 247.039 358.053 254.692C355.421 258.773 353.575 263.08 351.541 266.606L313.886 331.606C307.614 342.433 301.385 353.858 293.69 363.729C289.636 368.932 280.946 373.774 274.15 372.832C260.229 370.906 252.744 354.991 246.108 344.359C239.613 333.75 234.052 323.186 227.86 312.451C219.719 298.142 210.763 284.213 202.89 269.806L193.246 252.316C189.661 245.811 188.237 242.42 183.54 236.587C174.494 236.435 164.725 235.17 155.622 234.747C152.755 234.615 149.227 233.637 146.224 233.325C141.551 232.841 136.798 232.323 132.144 231.673C121.517 229.341 110.48 227.684 99.8849 225.483C80.2055 221.396 60.1831 216.316 41.6692 208.354C26.873 201.797 8.29637 192.608 1.62184 176.957C-3.54412 164.845 4.49329 148.925 13.5996 140.9C28.5818 127.697 49.5353 119.315 68.3245 113.013C76.3834 110.311 85.1328 108.536 93.1605 105.479C96.6473 104.279 100.825 104.084 104.043 102.69C101.332 96.5487 98.6511 92.7011 95.6244 86.9209C90.3501 76.8489 84.7903 68.1226 79.0613 58.2852C73.8182 49.2822 65.945 38.3696 63.2204 28.3319C61.6418 22.5168 64.3143 14.6548 67.5296 9.78489C71.7572 3.38218 79.1869 1.54109 86.34 0.187677ZM355.426 211.866C356.099 210.283 356.213 210.02 357.281 208.649C359.796 203.529 363.736 197.081 366.691 191.99L386.486 158.348L437.999 68.1615C445.424 55.3829 453.564 42.8165 460.78 29.8971C461.585 28.4556 460.617 26.8975 459.364 26.1317C454.955 25.361 450.712 25.5375 446.242 25.535L428.862 25.5748L373.384 25.4294L165.015 25.0648C155.693 24.9981 146.607 25.9036 137.262 25.4082C122.542 24.628 107.686 25.2639 92.943 25.0536C91.1727 25.0281 89.87 25.3558 89.5807 27.2785C90.8071 31.2634 94.3949 37.0222 96.5555 40.7959L107.852 60.4729C119.081 80.3327 130.527 100.069 142.186 119.68L172.499 172.244C176.937 179.881 181.576 187.473 185.953 195.175C188.819 200.218 194.533 208.171 196.503 213.48C203.479 215.332 213.385 214.502 220.545 215.346C230.945 216.574 240.889 215.787 251.225 216.153C264.038 216.605 276.777 216.783 289.607 216.559C294.815 216.508 300.918 215.686 306.18 215.346L332.939 213.795C336.699 213.583 352.745 213.348 355.249 211.977C355.309 211.943 355.366 211.903 355.426 211.866ZM213.797 239.632L213.244 239.924C213.275 240.854 220.713 252.491 221.871 254.531L255.175 312.139L264.885 328.853C267.157 332.825 272.617 343.297 275.518 345.973L276.007 345.907C280.557 341.531 290.503 322.024 294.157 315.74L321.786 268.197C327.488 258.375 333.906 248.461 339.065 238.31C339.449 237.557 339.334 236.925 338.988 236.212C337.38 235.308 332.501 236.258 330.396 236.504C313.411 239.103 296.054 238.94 278.966 239.638C263.386 240.273 248.03 240.539 232.425 240.362C229.656 240.331 226.851 240.439 224.085 240.273C220.368 240.01 217.602 239.489 213.797 239.632ZM103.103 198.976C107.761 199.957 112.508 201.649 117.309 202.713C133.434 206.288 149.554 209.158 165.878 211.648C166.884 211.803 168.481 211.748 169.367 211.248C169.418 210.818 169.411 210.481 168.985 210.192C163.923 206.754 162.38 202.315 159.434 196.941L151.444 182.6L125.96 138.746C124.401 136.058 117.636 121.866 115.293 121.529C95.3076 125.677 72.8508 133.142 54.6602 141.643C48.1684 144.677 32.0671 158.563 35.2621 165.617C41.5676 179.539 70.679 189.394 84.4832 194.208C90.9126 196.451 97.4322 197.27 103.103 198.976Z" fill="#00B87C"/>
<path d="M262.267 44.9369C267.092 44.4559 272.263 44.8113 277.124 44.8042C281.665 44.7973 286.713 44.3503 291.198 44.9687C293.22 45.2474 295.555 45.7805 297.213 47.0493C299.823 49.047 299.206 69.891 299.102 73.8087C299.029 76.5922 298.485 79.5649 298.96 82.3206C298.979 82.4341 299.002 82.547 299.021 82.6602C301.289 81.6388 305.339 78.5485 307.636 77.0988C310.623 75.1998 313.73 73.4661 316.808 71.7131C321.26 69.1772 325.049 66.0681 330.129 64.9441C334.031 66.3049 335.194 70.4092 337.3 73.7561C342.014 81.255 345.925 89.2596 350.474 96.8675C351.566 98.6945 352.57 101.84 350.461 103.41C341.305 110.227 330.363 115.035 321.265 121.927C325.885 126.265 349.497 137.068 351.067 140.686C351.684 142.11 351.104 143.861 350.555 145.219C348.656 149.922 344.419 156.006 341.817 160.775C339.155 165.65 336.99 171.245 333.868 175.793C333.315 176.597 332.626 177.273 331.701 177.623C330.732 177.991 329.684 177.939 328.722 177.584C326.006 176.587 323.482 174.547 320.995 173.067C314.089 168.954 307.292 164.707 300.015 161.291C299.302 164.692 299.437 167.158 299.425 170.606C299.393 174.742 299.41 178.879 299.469 183.015C299.518 186.01 300.099 194.62 298.148 197.198C296.716 199.087 290.696 198.599 288.256 198.547C284.969 198.451 280.553 198.838 277.311 198.49C270.083 197.716 261.886 199.068 254.946 198.012C251.234 196.606 252.346 188.567 251.88 186.446C250.969 182.305 252.508 163.599 251.51 161.463C249.9 161.115 241.336 167.419 239.385 168.386C234.276 170.918 228.361 175.465 223.246 177.591L222.912 177.727C219.712 177.507 219.723 176.962 217.981 174.338C212.931 166.7 208.639 158.054 203.444 150.565C196.588 140.682 199.661 140.821 208.411 135.441C215.435 131.123 222.484 126.694 229.856 122.917C230.354 122.662 230.582 122.419 230.857 121.956C230.499 120.137 211.699 110.205 208.787 108.01C203.237 103.827 197.404 104.403 202.27 95.1683C204.907 90.1628 207.741 85.8537 210.407 80.9166C213.152 76.3756 216.46 67.7056 220.923 64.9973C228.728 66.0799 248.557 81.1702 251.5 80.904C253.224 79.0119 249.8 53.0492 252.789 47.4089C254.215 44.7179 259.57 45.8221 262.035 45.0168C262.113 44.9917 262.19 44.9635 262.267 44.9369Z" fill="#00B87C"/>
<path d="M305.118 156.295L305.459 156.794L305.178 158.087C305.954 161.371 309.576 159.927 310.632 161.077L310.277 161.608C307.133 161.141 305.619 160.067 303.195 158.175L305.118 156.295Z" fill="#00B87C"/>
<path d="M316.815 123.774C318.406 123.958 319.456 124.485 320.172 125.905C319.076 125.56 317.325 124.798 316.815 123.774Z" fill="#00B87C"/>
<path d="M271.18 235.065C269.486 235.978 269.466 235.325 268.121 235.752C269.95 237.483 272.628 234.204 274.548 234.948L274.811 235.277C273.97 235.457 273.581 235.368 273.137 235.884C274.253 236.628 283.218 235.892 285.272 235.932C291.495 236.055 297.799 236.095 304.017 236.39C304.1 236.393 304.909 237.566 305.009 237.724C306.331 238.402 326.438 235.955 330.395 236.505C313.41 239.103 296.053 238.94 278.966 239.638C263.386 240.274 248.029 240.54 232.424 240.362C229.656 240.331 226.851 240.44 224.084 240.274C220.368 240.01 217.602 239.49 213.797 239.633C217.348 237.804 224.791 240.222 228.626 239.627C233.724 238.834 257.001 240.806 260.796 239.301C261.084 237.907 265.5 235.906 266.756 235.64L267.014 235.137C268.991 235.368 269.163 235.343 271.18 235.065Z" fill="#00B87C"/>
<path d="M359.496 208.526C366.995 207.33 378.449 208.054 385.062 205.707L385.336 205.887C384.478 208.042 378.538 209.445 376.415 209.957C375.319 210.713 374.612 210.521 373.59 210.941C369.519 212.619 365.336 214.135 360.875 213.18C359.782 212.942 356.291 212.272 355.427 211.866C356.099 210.283 356.214 210.02 357.281 208.649C358.131 208.641 358.657 208.638 359.496 208.526Z" fill="#00B87C"/>
<path d="M355.427 211.866C356.099 210.284 356.214 210.02 357.281 208.649C358.131 208.641 358.657 208.638 359.496 208.526C360.34 209.68 360.614 209.983 362.119 210.143C365.73 210.53 369.628 210.415 373.27 210.387C373.957 210.384 375.221 210.012 376.415 209.957C375.319 210.713 374.612 210.521 373.59 210.942C369.519 212.619 365.336 214.136 360.875 213.18C359.782 212.942 356.291 212.273 355.427 211.866Z" fill="#00B87C"/>
<path d="M369.675 226.473L370.182 226.416C372.683 226.121 380.875 223.886 381.89 224.012C380.042 225.031 376.854 225.174 374.949 226.13L374.917 226.556C374.829 227.687 374.894 228.205 374.216 229.095C373.329 229.69 370.814 229.547 369.612 229.544C361.704 229.527 353.589 230.792 345.838 232.297L343.305 234.747C342.802 234.733 339.746 234.727 339.534 234.544C340.767 234.283 342.696 234.538 343.142 234.352C343.946 234.011 346.416 231.233 347.194 230.812C348.029 230.363 350.184 230.139 351.277 229.653L351.197 229.384L351.051 229.309C350.825 229.427 358.894 227.572 359.715 227.312L361.944 227.117C363.546 226.545 364.053 225.234 364.906 223.771C365.435 224.776 365.63 225.168 366.311 226.061C367.329 226.636 368.457 226.479 369.675 226.473Z" fill="#00B87C"/>
<path d="M364.906 223.771C365.435 224.776 365.63 225.168 366.311 226.061C367.329 226.636 368.457 226.479 369.676 226.473C367.939 226.771 363.721 227.134 361.944 227.117C363.547 226.545 364.053 225.234 364.906 223.771Z" fill="#00B87C"/>
<path d="M267.014 235.136C263.186 233.994 242.875 236.982 240.977 235.161C240.76 234.157 240.778 233.748 240.761 232.706L241.194 232.62C241.882 233.979 240.937 234.08 241.828 235.25C244.822 235.585 247.299 234.626 249.659 234.663C256.315 234.772 261.782 234.724 268.31 233.032C269.089 233.212 269.332 233.699 269.847 234.34C271.658 234.583 272.013 232.557 273.758 232.288C275.329 232.915 277.704 234.586 278.943 234.701C280.543 234.852 283.518 233.825 285.355 233.765C287.659 233.69 290.746 234.343 292.926 234.163C298.214 233.728 311.082 231.936 315.68 233.959L315.614 234.397C314.89 234.566 310.784 233.573 309.591 233.685C298.612 234.732 287.447 235.419 276.425 235.244C275.615 235.233 274.943 232.451 272.992 233.044C272.768 233.295 271.329 234.953 271.18 235.064C269.163 235.342 268.991 235.368 267.014 235.136Z" fill="#00B87C"/>
<path d="M345.194 224.112C346.934 225.958 348.339 226.058 350.03 228.305L350.556 228.125C350.903 227.323 351.006 227.269 351.618 226.685L351.792 226.522C354.837 227.086 356.602 227.172 359.715 227.312C358.894 227.572 350.825 229.427 351.051 229.31C348.696 229.945 347.423 229.802 345.646 230.24C344.499 231.47 340.556 232.463 338.908 232.538L338.854 232.355C344.287 229.911 344.29 230.131 345.194 224.112Z" fill="#00B87C"/>
<path d="M227.904 232.068L228.705 232.629C228.928 233.992 229.324 234.504 230.553 235.059C232.085 234.833 234.002 233.096 235.201 232.1C236.059 234.773 237.454 237.034 239.933 233.9L240.105 233.68L240.276 233.997C240.119 234.716 240.216 234.77 239.452 235.257C238.016 236.17 229.978 235.74 228.728 235.403C228.43 234.727 228.223 234.189 227.973 233.494L227.667 233.537L227.551 235.571C225.379 237.495 215.915 234.85 212.868 236.101C211.829 236.527 211.048 236.49 210.087 235.903L210.061 235.468C212.354 234.85 224.197 235.503 226.887 235.709C227.136 234.135 227.171 233.534 227.904 232.068Z" fill="#00B87C"/>
  </g>
</svg>