<svg width="512" height="512" viewBox="0 0 512 512" fill="none" xmlns="http://www.w3.org/2000/svg">
<g filter="url(#filter0_d_494_2047)">
<path d="M92.2063 90.2066C94.2344 89.9364 96.5255 89.9823 98.5129 90.0601C100.664 90.1443 102.435 90.2599 103.963 90.2369H103.966L104.277 90.2339C108.418 90.1409 112.549 90.1048 116.658 90.0796C131.586 89.9874 146.449 89.9688 161.453 90.5523C169.899 90.8805 178.963 90.6311 187.695 90.5767L409.136 90.5865L415.746 90.5796C422.37 90.565 429.035 90.5352 435.646 90.5542C443.338 90.5764 450.991 91.552 458.142 96.2466L458.832 96.7134L458.841 96.7193L458.851 96.7261L459.23 96.9966L459.242 97.0044L459.268 97.023L459.279 97.0308L459.281 97.0328C468.583 103.849 470.708 116.888 465.822 126.611C458.864 140.456 450.8 154.142 443.01 167.335L412.564 219.994L412.548 220.021L412.539 220.032L385.792 266.193V266.198L385.387 266.896C383.492 270.16 381.668 273.468 379.924 276.814C379.576 277.493 379.201 278.252 378.8 279.059C378.686 279.29 378.568 279.524 378.449 279.761C379.673 279.527 380.994 279.283 382.35 279.094L384.987 278.713C412.247 274.653 439.87 266.556 464.668 254.795C473.06 250.815 479.533 246.371 485.635 239.657C485.778 239.499 486.09 239.042 486.683 238.015C487.18 237.154 487.856 235.931 488.55 234.842L488.819 234.428C489.47 233.444 490.3 232.34 491.31 231.457C491.849 230.985 492.552 230.485 493.398 230.123V228.079L495.65 229.604C496.013 229.59 496.39 229.613 496.779 229.67H496.804L496.886 229.684L497.444 229.778L497.628 229.809L497.789 229.905L498.275 230.194L498.382 230.258L498.393 230.269C500.276 231.442 501.621 233.438 501.935 235.686L502.41 239.1H502.051C501.645 245.38 497.869 251.101 493.883 255.584C489.045 261.024 483.023 265.615 479.05 268.525L477.668 269.54L476.976 270.046L476.954 270.025C451.464 287.98 421.464 296.368 392.322 303.379L392.324 303.382L390.382 303.847L390.312 303.864L390.24 303.871L390.103 303.883L390.102 303.882L390.05 303.887L390.051 303.888L390.025 303.891C388.044 304.075 385.464 304.663 382.537 305.383C379.761 306.067 376.646 306.878 374.048 307.306L374.047 307.307L373.886 307.334L373.806 307.346H373.803C372.512 307.555 369.218 308.08 366.063 308.656C364.369 308.965 362.771 309.279 361.573 309.557C361.182 309.648 360.862 309.73 360.611 309.799C358.286 312.392 356.168 315.718 354.005 319.43C351.78 323.25 349.426 327.626 346.961 331.285L346.942 331.316C345.836 333.03 344.875 334.825 343.923 336.672C343.02 338.425 342.072 340.329 341.093 342.037L341.083 342.059L341.058 342.102L341.027 342.156L306.262 402.166C300.732 411.711 294.998 422.211 287.994 431.391L287.991 431.396L287.314 432.274L287.311 432.277C285.01 435.229 281.562 437.903 277.857 439.734C274.298 441.492 270.052 442.692 265.963 442.236L265.95 442.234L265.58 442.188L265.567 442.186C257.661 441.092 251.892 436.05 247.525 430.593C243.231 425.229 239.69 418.629 236.833 414.052L236.814 414.023C230.803 404.205 225.525 394.207 219.929 384.504L219.924 384.496L219.923 384.494L219.906 384.464L219.9 384.454C212.608 371.637 204.028 358.221 196.816 345.024L188.773 330.438H188.77L187.914 328.885C184.822 323.273 183.636 320.553 180.458 316.376C176.753 316.252 172.969 315.969 169.261 315.664C165.421 315.347 161.682 315.016 158.044 314.809L156.491 314.728C154.858 314.652 153.128 314.345 151.66 314.073C150.082 313.78 148.776 313.523 147.592 313.4L144.902 313.12V313.112C141.448 312.743 137.941 312.343 134.482 311.861L134.443 311.857L134.403 311.85L134.383 311.847L134.381 311.846L134.323 311.837L134.299 311.835L134.275 311.829L134.217 311.817L134.21 311.816L134.173 311.808L134.162 311.806L134.154 311.804L134.141 311.801L134.133 311.798C129.313 310.741 124.383 309.833 119.391 308.928C114.415 308.027 109.361 307.126 104.408 306.097C86.1804 302.312 67.4181 297.566 49.9817 290.079L49.9436 290.065L49.9075 290.048L49.845 290.02C42.9869 286.981 34.9914 283.221 27.8977 278.31C20.8115 273.404 14.312 267.139 10.8186 258.948C7.88398 252.066 8.82563 244.449 11.3547 237.88C13.8948 231.284 18.2234 225.219 22.9124 221.086C37.3966 208.322 57.4256 200.38 74.8127 194.548C78.6608 193.258 82.6761 192.188 86.4915 191.13C90.3614 190.058 94.0756 188.984 97.5901 187.646L97.595 187.644L97.634 187.629L97.6614 187.62L97.6819 187.612L97.7043 187.604L97.7307 187.595L98.4299 187.37L98.4377 187.368L98.4465 187.365C100.152 186.846 101.933 186.522 103.353 186.241C103.359 186.24 103.365 186.237 103.371 186.236C102.789 185.128 102.198 184.069 101.585 182.993C100.41 180.928 99.1266 178.744 97.7454 176.106C92.9287 166.908 87.9322 159.084 82.5403 149.826C81.3644 147.807 80.0348 145.67 78.6243 143.397C77.5753 141.707 76.486 139.948 75.4153 138.155L74.3528 136.351C71.5715 131.559 68.9093 126.357 67.511 121.207C66.5312 117.597 66.9281 113.671 67.8333 110.247C68.7504 106.777 70.2897 103.439 72.012 100.831C76.9448 93.3602 85.4817 91.4721 91.9436 90.2486L91.9543 90.2456L91.9846 90.2398L92.011 90.2349L92.0178 90.2339L92.0891 90.2212L92.1213 90.2154L92.1536 90.2115L92.2063 90.2066ZM319.241 316.379L318.816 316.372L318.305 316.361C302.44 318.751 286.119 318.618 270.724 319.248C256.278 319.837 242.029 320.084 227.546 319.919C225.275 319.894 222.316 319.99 219.651 319.831H219.646L219.615 319.829L219.6 319.828L219.579 319.827L219.57 319.826L219.414 319.816L219.406 319.811C218.428 319.739 217.559 319.658 216.762 319.579C216.804 319.647 216.845 319.715 216.887 319.784C218.656 322.674 220.715 325.956 221.31 326.999L252.055 380.178L261.021 395.609L261.024 395.615L261.055 395.669L261.073 395.702L261.087 395.73L261.972 397.306L261.975 397.31L261.98 397.319C263.024 399.202 264.327 401.588 265.707 403.955C266.361 405.075 267.009 406.151 267.623 407.117C267.865 406.756 268.118 406.372 268.378 405.965C269.824 403.71 271.429 400.972 273.036 398.13C276.132 392.657 279.477 386.341 281.128 383.502L306.637 339.608L306.666 339.557L306.667 339.555L307.641 337.89L307.65 337.876C311.937 330.586 316.379 323.545 320.301 316.345H319.276L319.241 316.379ZM219.651 319.831L219.655 319.83C219.653 319.829 219.652 319.829 219.651 319.829C219.649 319.829 219.647 319.829 219.646 319.829L219.651 319.831ZM139.519 121.454C126.665 120.772 114.053 121.27 100.851 121.151C101.226 121.916 101.649 122.731 102.113 123.577C103.313 125.768 104.55 127.81 105.616 129.673L115.927 147.635L115.939 147.649L116.06 147.863L116.061 147.864C126.412 166.17 136.961 184.364 147.708 202.44L147.718 202.457L147.727 202.473L147.735 202.485L147.74 202.494L147.745 202.503L147.75 202.512L175.565 250.745L175.723 251.016L175.724 251.017C179.742 257.93 184.132 265.124 188.165 272.221C189.443 274.469 191.288 277.255 193.267 280.451C194.706 282.775 196.202 285.298 197.296 287.629C199.696 288.051 202.509 288.216 205.583 288.31C209.306 288.424 213.552 288.431 217.085 288.847L217.952 288.945C222.225 289.4 226.458 289.49 230.81 289.492C235.387 289.494 240.228 289.397 245.092 289.569C256.82 289.983 268.465 290.144 280.182 289.943L280.199 289.942H280.234L280.347 289.941C285.04 289.894 290.036 289.182 295.334 288.835L295.349 288.834L295.372 288.833L320.162 287.396L320.169 287.395L320.227 287.392L320.252 287.391L320.981 287.356L321.005 287.355H321.027C321.947 287.316 323.212 287.275 324.611 287.225C326.519 287.158 328.74 287.073 330.914 286.957C333.1 286.839 335.185 286.693 336.833 286.505C337.389 286.442 337.87 286.374 338.271 286.308C338.311 286.233 338.351 286.156 338.394 286.081C338.711 285.52 339.058 285.032 339.457 284.509C341.864 279.681 345.514 273.698 348.097 269.25L348.102 269.24L348.116 269.214L348.124 269.202L366.377 238.179L413.925 154.933L413.932 154.921C420.577 143.485 427.379 132.954 433.756 121.728C432.405 121.613 431.04 121.573 429.604 121.564L408.966 121.612H408.947L165.346 121.141H165.325C161.13 121.111 157.001 121.299 152.686 121.446C148.418 121.591 144.016 121.692 139.519 121.454ZM118.264 210.546C100.623 214.387 81.0685 220.964 65.1614 228.398C62.7692 229.516 57.9533 233.051 54.0764 237.186C52.1616 239.229 50.6825 241.204 49.8538 242.875C49.0226 244.55 49.1854 245.198 49.2014 245.255L49.4231 245.718C50.5654 247.954 52.6955 250.293 55.7668 252.664C59.0145 255.17 63.0612 257.516 67.4475 259.668C76.2243 263.976 85.8844 267.283 92.3059 269.522L92.3147 269.525L92.3274 269.529L92.3401 269.534C95.0651 270.483 97.8532 271.149 100.729 271.788C103.478 272.399 106.418 273.009 109.162 273.823C111.425 274.306 113.679 274.951 115.803 275.559C118.018 276.194 120.1 276.793 122.175 277.253C134.835 280.06 147.505 282.392 160.31 284.443C158.907 282.173 157.825 279.817 156.693 277.751L156.654 277.679L149.366 264.598L125.432 223.41V223.365C125.022 222.604 124.48 221.562 123.906 220.456C123.085 218.876 122.123 217.038 121.146 215.278C120.158 213.498 119.207 211.895 118.413 210.754C118.362 210.681 118.311 210.613 118.264 210.546ZM268.855 132.364C272.663 132.358 277.852 131.936 282.263 132.544C284.205 132.812 287.039 133.379 289.23 135.055C289.86 135.538 290.244 136.139 290.477 136.58C290.723 137.047 290.906 137.544 291.047 138.01C291.329 138.94 291.53 140.037 291.682 141.168C291.987 143.447 292.143 146.264 292.217 149.045C292.329 153.236 292.262 157.54 292.201 160.188V160.191L292.15 162.221C292.127 163.091 292.051 164.087 291.983 164.981C293.187 164.149 294.478 163.243 295.429 162.643C298.261 160.843 301.21 159.197 304.013 157.6C304.977 157.051 305.917 156.465 306.9 155.848C307.866 155.242 308.886 154.598 309.93 153.996C312.033 152.781 314.383 151.641 317.149 151.029L317.98 150.846L318.783 151.126H318.785C321.473 152.063 323.107 153.942 324.249 155.712C324.809 156.58 325.295 157.493 325.718 158.288C326.156 159.112 326.532 159.82 326.944 160.476L326.957 160.498C329.185 164.042 331.214 167.69 333.186 171.282C335.17 174.896 337.09 178.441 339.155 181.893C339.801 182.975 340.493 184.546 340.666 186.236C340.839 187.921 340.5 190.158 338.554 191.729L338.361 191.878C333.972 195.145 329.179 197.915 324.578 200.588C321.185 202.561 317.889 204.483 314.788 206.566C315.453 206.978 316.197 207.426 317.016 207.902C319.646 209.431 322.768 211.131 325.879 212.853C328.955 214.555 332.024 216.281 334.424 217.802C335.621 218.561 336.717 219.311 337.589 220.015C338.026 220.368 338.451 220.745 338.82 221.14C339.084 221.423 339.397 221.798 339.656 222.252L339.765 222.451L339.771 222.463L339.778 222.476L339.866 222.664L339.879 222.691L339.89 222.718L339.977 222.934L339.982 222.945L339.986 222.956C340.476 224.258 340.421 225.536 340.25 226.517C340.113 227.306 339.876 228.041 339.654 228.639L339.651 228.646L339.649 228.653L339.442 229.185L339.437 229.198C338.463 231.61 336.933 234.281 335.438 236.775C333.888 239.36 332.384 241.743 331.221 243.874C330.034 246.047 328.982 248.335 327.771 250.803C326.592 253.206 325.293 255.711 323.723 257.999L323.67 258.075L323.659 258.085C323.165 258.787 322.507 259.528 321.625 260.116L321.757 260.248L320.311 260.796C318.637 261.431 316.915 261.306 315.461 260.77C313.896 260.195 312.466 259.353 311.235 258.565C309.877 257.697 308.944 257.026 307.829 256.363C302.623 253.262 297.644 250.181 292.471 247.489C292.446 248.251 292.446 249.041 292.448 249.933V251.536C292.418 255.324 292.435 259.116 292.489 262.909L292.522 264.123L292.558 265.328C292.594 266.635 292.621 268.216 292.571 269.758C292.526 271.143 292.417 272.609 292.178 273.935C291.956 275.165 291.555 276.694 290.661 277.875L290.619 277.929L290.606 277.942C289.789 278.978 288.655 279.502 287.763 279.786L287.39 279.896C286.355 280.178 285.226 280.3 284.214 280.355C282.229 280.462 280.018 280.329 279.073 280.309L279.029 280.308L279.024 280.307C277.613 280.267 275.976 280.33 274.134 280.37C272.366 280.408 270.422 280.423 268.712 280.24C265.623 279.909 262.292 280.03 258.694 280.132C255.2 280.232 251.442 280.315 247.931 279.781L247.72 279.749L247.615 279.733L247.517 279.695L247.319 279.62C245.439 278.907 244.382 277.411 243.8 276.063C243.228 274.738 242.982 273.272 242.858 272.022C242.731 270.749 242.712 269.472 242.695 268.502C242.68 267.685 242.663 267.198 242.638 266.923L242.612 266.735C242.327 265.4 242.272 263.291 242.273 261.197C242.273 258.961 242.345 256.338 242.412 253.83C242.473 251.56 242.526 249.388 242.531 247.596C242.149 247.83 241.752 248.08 241.347 248.339C240.171 249.091 239.003 249.869 237.958 250.552C237.004 251.177 235.996 251.829 235.347 252.151C233.155 253.237 230.77 254.767 228.155 256.398C225.642 257.965 222.909 259.628 220.297 260.718L220.259 260.738L220.219 260.751L219.934 260.866L219.507 261.041L219.292 261.127L219.061 261.112L218.601 261.08C217.101 260.977 215.51 260.783 214.153 259.698C213.529 259.199 213.09 258.62 212.764 258.151C212.497 257.766 212.115 257.162 211.805 256.692L211.752 256.613C209.362 252.998 207.156 249.151 204.999 245.438C202.823 241.691 200.688 238.065 198.367 234.719C196.77 232.417 195.568 230.448 194.929 228.716C194.251 226.879 194.072 224.926 195.078 223.05C195.944 221.437 197.473 220.348 198.793 219.508C199.502 219.058 200.303 218.59 201.129 218.107C201.97 217.616 202.871 217.09 203.847 216.49C209.402 213.074 215.095 209.507 221.002 206.313C219.427 205.302 217.427 204.106 215.324 202.877C212.926 201.476 210.612 200.157 208.528 198.943C206.587 197.812 204.808 196.755 203.959 196.115C202.888 195.307 201.792 194.719 200.602 194.074C199.536 193.496 198.112 192.737 197.037 191.669C195.777 190.417 194.994 188.766 195.075 186.653C195.148 184.773 195.9 182.731 197.094 180.464C198.35 178.082 199.648 175.874 200.913 173.734C202.187 171.579 203.425 169.498 204.621 167.281L204.623 167.277L204.647 167.234L204.654 167.221L204.66 167.21L204.685 167.168L204.69 167.161L204.694 167.153C205.263 166.21 205.883 165.019 206.599 163.624C207.297 162.263 208.075 160.732 208.906 159.252C210.488 156.437 212.609 153.146 215.414 151.443L216.325 150.889L217.382 151.036C219.747 151.364 222.651 152.654 225.424 154.097C228.298 155.593 231.425 157.47 234.34 159.262C237.3 161.083 239.997 162.787 242.166 164.05C242.339 164.151 242.508 164.245 242.67 164.337C242.67 164.193 242.672 164.044 242.67 163.892C242.641 161.367 242.485 158.129 242.36 154.637C242.236 151.202 242.146 147.565 242.267 144.436C242.328 142.871 242.444 141.374 242.65 140.058C242.846 138.798 243.16 137.46 243.74 136.365L243.746 136.352L243.753 136.339L243.874 136.126L243.881 136.114L243.888 136.103C244.664 134.816 245.825 134.091 246.875 133.683L247.283 133.538C248.24 133.225 249.22 133.095 250.035 133.023C250.917 132.945 252.003 132.913 252.642 132.875C253.446 132.827 253.832 132.762 253.995 132.709L254.001 132.707C254.036 132.695 254.045 132.691 254.159 132.652L254.382 132.575L254.493 132.537L254.843 132.502C259.486 132.039 264.667 132.37 268.855 132.364ZM27.6643 222.299C27.3062 222.593 26.9506 222.888 26.5989 223.187C26.9505 222.888 27.3063 222.593 27.6643 222.299ZM124.325 170.413C125.388 172.257 126.454 174.099 127.521 175.941C126.364 173.944 125.209 171.946 124.057 169.946L124.325 170.413Z" fill="#0B1726"/>
</g>
<defs>
<filter id="filter0_d_494_2047" x="5.00098" y="90" width="501.409" height="360.333" filterUnits="userSpaceOnUse" color-interpolation-filters="sRGB">
<feFlood flood-opacity="0" result="BackgroundImageFix"/>
<feColorMatrix in="SourceAlpha" type="matrix" values="0 0 0 0 0 0 0 0 0 0 0 0 0 0 0 0 0 0 127 0" result="hardAlpha"/>
<feOffset dy="4"/>
<feGaussianBlur stdDeviation="2"/>
<feComposite in2="hardAlpha" operator="out"/>
<feColorMatrix type="matrix" values="0 0 0 0 0 0 0 0 0 0 0 0 0 0 0 0 0 0 0.25 0"/>
<feBlend mode="normal" in2="BackgroundImageFix" result="effect1_dropShadow_494_2047"/>
<feBlend mode="normal" in="SourceGraphic" in2="effect1_dropShadow_494_2047" result="shape"/>
</filter>
</defs>
</svg>
