<svg xmlns="http://www.w3.org/2000/svg" viewBox="185 32 182 180">
  <path d="M262.267 44.9369C267.092 44.4559 272.263 44.8113 277.124 44.8042C281.665 44.7973 286.713 44.3503 291.198 44.9687C293.22 45.2474 295.555 45.7805 297.213 47.0493C299.823 49.047 299.206 69.891 299.102 73.8087C299.029 76.5922 298.485 79.5649 298.96 82.3206C298.979 82.4341 299.002 82.547 299.021 82.6602C301.289 81.6388 305.339 78.5485 307.636 77.0988C310.623 75.1998 313.73 73.4661 316.808 71.7131C321.26 69.1772 325.049 66.0681 330.129 64.9441C334.031 66.3049 335.194 70.4092 337.3 73.7561C342.014 81.255 345.925 89.2596 350.474 96.8675C351.566 98.6945 352.57 101.84 350.461 103.41C341.305 110.227 330.363 115.035 321.265 121.927C325.885 126.265 349.497 137.068 351.067 140.686C351.684 142.11 351.104 143.861 350.555 145.219C348.656 149.922 344.419 156.006 341.817 160.775C339.155 165.65 336.99 171.245 333.868 175.793C333.315 176.597 332.626 177.273 331.701 177.623C330.732 177.991 329.684 177.939 328.722 177.584C326.006 176.587 323.482 174.547 320.995 173.067C314.089 168.954 307.292 164.707 300.015 161.291C299.302 164.692 299.437 167.158 299.425 170.606C299.393 174.742 299.41 178.879 299.469 183.015C299.518 186.01 300.099 194.62 298.148 197.198C296.716 199.087 290.696 198.599 288.256 198.547C284.969 198.451 280.553 198.838 277.311 198.49C270.083 197.716 261.886 199.068 254.946 198.012C251.234 196.606 252.346 188.567 251.88 186.446C250.969 182.305 252.508 163.599 251.51 161.463C249.9 161.115 241.336 167.419 239.385 168.386C234.276 170.918 228.361 175.465 223.246 177.591L222.912 177.727C219.712 177.507 219.723 176.962 217.981 174.338C212.931 166.7 208.639 158.054 203.444 150.565C196.588 140.682 199.661 140.821 208.411 135.441C215.435 131.123 222.484 126.694 229.856 122.917C230.354 122.662 230.582 122.419 230.857 121.956C230.499 120.137 211.699 110.205 208.787 108.01C203.237 103.827 197.404 104.403 202.27 95.1683C204.907 90.1628 207.741 85.8537 210.407 80.9166C213.152 76.3756 216.46 67.7056 220.923 64.9973C228.728 66.0799 248.557 81.1702 251.5 80.904C253.224 79.0119 249.8 53.0492 252.789 47.4089C254.215 44.7179 259.57 45.8221 262.035 45.0168C262.113 44.9917 262.19 44.9635 262.267 44.9369Z" fill="#00B87C"/>
</svg>