<svg width="512" height="512" viewBox="0 0 512 512" fill="none" xmlns="http://www.w3.org/2000/svg">
<path d="M92.3158 91.2002C94.2551 90.9394 96.4784 90.9815 98.473 91.0596C100.585 91.1423 102.413 91.2609 103.977 91.2373L104.298 91.2334C108.431 91.1406 112.555 91.1053 116.663 91.0801C131.591 90.9879 146.433 90.9692 161.413 91.5518C169.889 91.8811 178.998 91.6314 187.7 91.5772H187.718L409.134 91.5869H409.136L415.747 91.5791C422.374 91.5645 429.035 91.5357 435.642 91.5547C443.501 91.5774 451.157 92.6077 458.261 97.5352L458.283 97.5508L458.667 97.8252L458.678 97.832L458.689 97.8399C467.548 104.332 469.623 116.819 464.927 126.162C457.986 139.976 449.938 153.636 442.144 166.836L411.697 219.493L411.695 219.496L384.791 265.926V265.929L384.521 266.395C382.618 269.671 380.788 272.993 379.037 276.353C378.33 277.729 377.518 279.419 376.643 281.124C378.392 280.798 380.388 280.378 382.487 280.085C410.693 276.15 439.398 267.886 465.095 255.699C473.582 251.674 480.169 247.159 486.374 240.33C486.602 240.079 486.965 239.523 487.547 238.516C488.058 237.63 488.713 236.445 489.392 235.38C490.065 234.325 490.922 233.124 491.967 232.21C492.583 231.672 493.405 231.116 494.397 230.819V229.965L495.372 230.626C495.797 230.584 496.246 230.593 496.717 230.671H496.719L497.277 230.765L497.762 231.054L497.763 231.055C499.455 232.065 500.666 233.838 500.943 235.824L501.26 238.101H501.088C501.045 244.393 497.288 250.248 493.134 254.919C488.371 260.275 482.424 264.815 478.458 267.72L477.076 268.733L477.066 268.724C451.098 287.253 420.302 295.663 390.351 302.825L390.352 302.826L390.148 302.875L390.01 302.888L389.94 302.895L389.931 302.896C387.864 303.087 385.212 303.695 382.297 304.413C379.495 305.103 376.432 305.901 373.884 306.32L373.723 306.347H373.719C372.492 306.546 369.115 307.083 365.882 307.673C364.184 307.983 362.568 308.3 361.346 308.583C360.79 308.712 360.36 308.825 360.059 308.916C357.583 311.622 355.366 315.107 353.14 318.928C350.889 322.792 348.571 327.104 346.13 330.727L346.1 330.774C344.967 332.531 343.988 334.361 343.033 336.215C342.111 338.004 341.172 339.895 340.198 341.589L340.193 341.6L340.162 341.653L305.396 401.665C299.846 411.244 294.154 421.67 287.199 430.785L286.521 431.663C284.328 434.477 281.006 437.063 277.412 438.838C273.955 440.546 269.906 441.67 266.073 441.242L265.703 441.196C258.167 440.153 252.605 435.343 248.304 429.969C244.059 424.665 240.587 418.182 237.68 413.523L237.665 413.501C231.66 403.691 226.418 393.757 220.794 384.005L220.791 384L220.78 383.98L220.768 383.96C213.421 371.045 204.918 357.767 197.692 344.545L189.362 329.438H189.36L188.789 328.403C185.637 322.683 184.422 319.865 180.966 315.394C177.136 315.281 173.209 314.986 169.342 314.667C165.509 314.351 161.751 314.019 158.096 313.812L156.543 313.73C154.985 313.658 153.317 313.364 151.842 313.09C150.286 312.801 148.929 312.534 147.694 312.405L145.901 312.219V312.215C142.154 311.82 138.342 311.391 134.59 310.867L134.58 310.866L134.57 310.864L134.531 310.858L134.473 310.85L134.415 310.838L134.378 310.83L134.37 310.828L134.362 310.826C129.517 309.763 124.565 308.85 119.568 307.944C114.587 307.042 109.548 306.144 104.611 305.118C86.3986 301.336 67.7067 296.604 50.3568 289.151L50.3187 289.138L50.2562 289.109C43.4038 286.073 35.4789 282.344 28.4652 277.488C21.4591 272.638 15.128 266.505 11.7377 258.556C8.94065 251.997 9.81199 244.666 12.2865 238.24C14.7692 231.793 19.0048 225.863 23.5726 221.837C37.8941 209.216 57.7521 201.325 75.1293 195.497C78.9455 194.217 82.9267 193.156 86.7572 192.095C90.6287 191.022 94.3823 189.938 97.9447 188.581L97.9838 188.566L98.0238 188.553L98.0365 188.548L98.7357 188.322C100.382 187.822 102.104 187.508 103.546 187.222C104.007 187.13 104.444 187.038 104.861 186.946C104.072 185.38 103.28 183.951 102.453 182.499C101.271 180.421 100.001 178.26 98.6303 175.643C93.8004 166.419 88.7689 158.538 83.4027 149.323C82.2183 147.289 80.8814 145.139 79.473 142.87C78.0736 140.615 76.6099 138.251 75.2162 135.85C72.4461 131.076 69.8382 125.967 68.475 120.945C67.5578 117.567 67.9189 113.833 68.7992 110.503C69.6886 107.139 71.1823 103.901 72.8451 101.382C77.5264 94.2923 85.6586 92.4553 92.1576 91.2256L92.1654 91.2236L92.1918 91.2188L92.2631 91.2061L92.3158 91.2002ZM318.834 315.372L318.24 315.36C302.42 317.753 286.171 317.616 270.682 318.249C256.251 318.838 242.02 319.084 227.556 318.92C225.215 318.893 222.346 318.991 219.709 318.833L219.679 318.831L219.677 318.83C219.674 318.83 219.671 318.83 219.668 318.83L219.649 318.829L219.638 318.828C217.724 318.691 216.271 318.515 214.869 318.388C215.238 319.001 215.63 319.649 216.033 320.307C217.821 323.229 219.861 326.479 220.443 327.499L251.189 380.681L260.155 396.111L260.186 396.166L260.196 396.187L261.099 397.796L261.104 397.805C262.144 399.681 263.455 402.08 264.842 404.459C265.756 406.026 266.666 407.519 267.496 408.754C267.532 408.806 267.568 408.857 267.603 408.908C268.093 408.22 268.636 407.416 269.219 406.506C270.679 404.227 272.295 401.471 273.906 398.623C277.038 393.085 280.332 386.86 281.992 384.005L307.5 340.11L307.503 340.106L308.503 338.396L308.506 338.391C313.063 330.643 317.851 323.086 321.974 315.346H318.861L318.834 315.372ZM321.316 320.694C321.036 321.19 320.754 321.686 320.47 322.181C320.754 321.686 321.036 321.19 321.316 320.694ZM325.304 315.462C325.411 315.257 325.517 315.052 325.622 314.848C325.764 314.573 325.907 314.299 326.047 314.023C325.803 314.504 325.554 314.983 325.304 315.462ZM317.725 315.339H317.727C317.721 315.338 317.716 315.337 317.713 315.337H317.709C317.711 315.337 317.718 315.338 317.725 315.339ZM317.065 315.192C317.084 315.199 317.106 315.207 317.129 315.215C317.135 315.217 317.142 315.219 317.149 315.221C317.142 315.218 317.134 315.215 317.127 315.213C317.112 315.208 317.098 315.204 317.084 315.199C317.066 315.193 317.05 315.186 317.035 315.18C317.032 315.179 317.029 315.179 317.027 315.178C317.038 315.182 317.051 315.187 317.065 315.192ZM316.951 315.146C316.956 315.149 316.964 315.152 316.972 315.155C316.963 315.152 316.956 315.148 316.95 315.146C316.943 315.143 316.937 315.14 316.933 315.139C316.937 315.141 316.944 315.143 316.951 315.146ZM316.78 315.062C316.784 315.064 316.789 315.065 316.794 315.068C316.774 315.057 316.759 315.05 316.752 315.046L316.78 315.062ZM317.785 313.324C317.778 313.322 317.772 313.32 317.767 313.318C317.763 313.317 317.76 313.317 317.757 313.316C317.763 313.318 317.773 313.321 317.785 313.324ZM139.571 120.455C126.185 119.746 112.971 120.313 99.2728 120.136C99.7865 121.317 100.465 122.653 101.235 124.058C102.44 126.257 103.699 128.339 104.748 130.172L115.101 148.206L115.11 148.217L115.189 148.356C125.545 166.673 136.101 184.876 146.854 202.963L146.859 202.971L146.863 202.978L146.87 202.989L146.874 202.998L174.7 251.249L174.858 251.521C178.896 258.468 183.259 265.616 187.294 272.716C188.583 274.984 190.462 277.823 192.415 280.978C193.952 283.459 195.525 286.121 196.604 288.519C199.195 289.026 202.256 289.21 205.551 289.311C209.324 289.426 213.496 289.432 216.973 289.842L217.839 289.939C222.167 290.4 226.444 290.49 230.808 290.492C235.413 290.494 240.214 290.397 245.055 290.568C256.808 290.983 268.48 291.146 280.228 290.943L280.241 290.942L280.356 290.941C285.075 290.895 290.226 290.173 295.411 289.833L295.429 289.831L320.219 288.395L320.277 288.392H320.28L321.028 288.355H321.04C321.959 288.317 323.228 288.275 324.645 288.225C326.554 288.157 328.782 288.073 330.966 287.956C333.159 287.839 335.266 287.69 336.945 287.499C337.756 287.407 338.426 287.307 338.936 287.207C339.038 286.994 339.145 286.783 339.263 286.573C339.562 286.045 339.895 285.58 340.309 285.041C342.696 280.237 346.343 274.261 348.96 269.752L348.967 269.739L348.975 269.727L367.245 238.676L414.792 155.43L414.795 155.424C421.649 143.629 428.8 132.597 435.376 120.897C433.472 120.646 431.59 120.577 429.608 120.564L408.962 120.612H408.948L165.347 120.142H165.331C161.109 120.111 156.95 120.301 152.651 120.447C148.387 120.592 144.022 120.691 139.571 120.455ZM141.046 284.159C149.426 285.725 157.833 287.127 166.301 288.419C166.492 288.448 166.717 288.469 166.958 288.476C166.717 288.469 166.492 288.448 166.302 288.419C157.834 287.127 149.427 285.725 141.046 284.159ZM118.68 209.433C100.804 213.268 80.9024 219.938 64.7367 227.492C62.1935 228.681 57.2781 232.309 53.3461 236.503C51.3977 238.581 49.8461 240.638 48.9564 242.431C48.0195 244.319 48.1152 245.285 48.2904 245.672L48.5228 246.156C49.7565 248.581 52.0147 251.033 55.1547 253.456C58.4748 256.018 62.5857 258.397 67.0053 260.566C75.8525 264.908 85.5794 268.237 91.9887 270.472L92.0101 270.479C94.7939 271.449 97.6295 272.124 100.51 272.765C103.296 273.384 106.205 273.987 108.917 274.794C111.153 275.27 113.387 275.908 115.527 276.521C117.735 277.153 119.847 277.763 121.957 278.23C135.388 281.208 148.827 283.653 162.42 285.792C160.383 283.04 159.088 280.043 157.569 277.271L157.528 277.196L150.23 264.096L126.431 223.141V223.117C126.015 222.356 125.429 221.223 124.791 219.995C123.971 218.415 123.003 216.566 122.019 214.793C121.026 213.005 120.056 211.367 119.233 210.184C119.024 209.884 118.84 209.635 118.68 209.433ZM268.855 133.364C272.789 133.358 277.805 132.939 282.125 133.535C284.042 133.799 286.649 134.341 288.62 135.85C289.091 136.21 289.393 136.672 289.591 137.047C289.798 137.44 289.959 137.872 290.089 138.301C290.349 139.158 290.542 140.195 290.69 141.302C290.988 143.527 291.142 146.302 291.216 149.072C291.328 153.238 291.261 157.523 291.201 160.166L291.149 162.196C291.114 163.505 290.96 165.025 290.89 166.202C290.875 166.459 290.864 166.71 290.856 166.956C291.195 166.732 291.549 166.494 291.913 166.245C293.312 165.29 294.861 164.183 295.961 163.489C298.769 161.704 301.69 160.074 304.506 158.47C305.492 157.908 306.448 157.311 307.43 156.695C308.401 156.086 309.404 155.454 310.429 154.862C312.49 153.673 314.738 152.587 317.364 152.006L317.917 151.884L318.454 152.07C320.846 152.905 322.325 154.577 323.408 156.255C323.941 157.082 324.409 157.958 324.834 158.758C325.273 159.582 325.669 160.33 326.109 161.029L326.11 161.03C328.32 164.547 330.336 168.172 332.308 171.764C334.288 175.37 336.219 178.934 338.295 182.406C338.894 183.409 339.517 184.839 339.67 186.338C339.828 187.874 339.496 189.786 337.762 191.077C333.428 194.304 328.685 197.045 324.075 199.725C320.229 201.959 316.471 204.153 312.974 206.598C313.924 207.225 315.118 207.956 316.512 208.767C319.154 210.303 322.293 212.012 325.394 213.729C328.472 215.432 331.516 217.144 333.887 218.647C335.07 219.398 336.13 220.124 336.959 220.794C337.374 221.129 337.762 221.474 338.087 221.823C338.358 222.113 338.654 222.477 338.872 222.905L338.961 223.093L339.048 223.309C339.454 224.385 339.417 225.466 339.264 226.347C339.141 227.052 338.927 227.722 338.715 228.291L338.508 228.823C337.566 231.155 336.075 233.765 334.578 236.261C333.046 238.817 331.518 241.24 330.342 243.395C329.141 245.594 328.068 247.925 326.871 250.363C325.696 252.758 324.424 255.208 322.897 257.434L322.895 257.436C322.248 258.375 321.32 259.343 319.954 259.86L319.955 259.861C318.542 260.397 317.072 260.299 315.806 259.832C314.344 259.295 312.987 258.5 311.772 257.723C310.475 256.893 309.465 256.174 308.339 255.504C302.702 252.146 297.268 248.771 291.562 245.9C291.404 247.637 291.455 249.287 291.447 251.52V251.528C291.417 255.329 291.433 259.133 291.488 262.937L291.521 264.155C291.567 265.613 291.635 267.707 291.57 269.727C291.525 271.088 291.419 272.499 291.193 273.758C290.978 274.951 290.609 276.285 289.863 277.271L289.862 277.272C289.127 278.242 288.002 278.693 287.125 278.932C286.188 279.187 285.139 279.303 284.159 279.356C282.223 279.461 280.097 279.331 279.093 279.31L279.084 279.309H279.077C277.627 279.266 275.936 279.331 274.111 279.37C272.341 279.408 270.457 279.422 268.818 279.246C265.646 278.906 262.238 279.031 258.663 279.133C255.159 279.233 251.489 279.311 248.08 278.793L247.87 278.761L247.672 278.686C246.135 278.103 245.236 276.87 244.717 275.667C244.205 274.481 243.973 273.133 243.852 271.923C243.73 270.697 243.71 269.462 243.693 268.485C243.678 267.662 243.661 267.132 243.631 266.815L243.597 266.567C243.332 265.36 243.271 263.338 243.272 261.197C243.272 258.978 243.343 256.369 243.411 253.856C243.478 251.326 243.542 248.897 243.533 246.98C243.531 246.574 243.525 246.198 243.516 245.854C242.715 246.301 241.781 246.875 240.807 247.497C239.625 248.253 238.445 249.038 237.41 249.716C236.435 250.354 235.485 250.966 234.902 251.255C232.654 252.369 230.217 253.933 227.624 255.55C225.095 257.127 222.417 258.755 219.882 259.809L219.874 259.813L219.866 259.815L219.557 259.94L219.129 260.114L218.669 260.082C217.179 259.98 215.871 259.793 214.776 258.917C214.265 258.508 213.892 258.024 213.584 257.581C213.306 257.18 212.933 256.584 212.587 256.063L212.585 256.062C210.215 252.476 208.025 248.659 205.863 244.937C203.688 241.192 201.535 237.532 199.188 234.149C197.596 231.855 196.458 229.974 195.866 228.37C195.247 226.694 195.134 225.061 195.958 223.523C196.69 222.159 198.016 221.188 199.328 220.353C200.018 219.914 200.802 219.456 201.632 218.971C202.473 218.48 203.382 217.949 204.37 217.342C210.401 213.634 216.546 209.778 222.949 206.407C222.691 206.229 222.408 206.036 222.097 205.832C220.429 204.736 218.183 203.391 215.828 202.015C213.443 200.621 211.089 199.279 209.03 198.079C207.066 196.935 205.35 195.912 204.56 195.316C203.419 194.456 202.255 193.834 201.078 193.195C199.984 192.602 198.695 191.908 197.741 190.96C196.662 189.889 196.003 188.504 196.074 186.692C196.138 185.036 196.807 183.152 197.978 180.931C199.221 178.572 200.507 176.384 201.773 174.243C203.044 172.092 204.292 169.994 205.5 167.756L205.524 167.713L205.548 167.671C206.139 166.693 206.775 165.471 207.488 164.08C208.189 162.713 208.956 161.202 209.777 159.742C211.363 156.921 213.374 153.85 215.932 152.298L216.539 151.929L217.244 152.026C219.421 152.328 222.189 153.541 224.961 154.984C227.801 156.463 230.902 158.323 233.815 160.114C236.758 161.924 239.478 163.644 241.662 164.915C242.417 165.355 243.083 165.724 243.65 166.017C243.671 165.415 243.679 164.7 243.669 163.881C243.64 161.339 243.482 158.073 243.358 154.602C243.235 151.168 243.145 147.564 243.265 144.476C243.325 142.931 243.439 141.476 243.636 140.213C243.828 138.987 244.12 137.78 244.622 136.833L244.744 136.619C245.371 135.578 246.32 134.972 247.236 134.616C248.185 134.248 249.221 134.099 250.122 134.02C250.99 133.943 252.008 133.914 252.7 133.873C253.504 133.825 254.007 133.757 254.306 133.659L254.309 133.658C254.356 133.643 254.38 133.634 254.486 133.598L254.708 133.521L254.942 133.497C259.522 133.041 264.569 133.371 268.855 133.364ZM173.127 252.525C175.676 256.91 178.316 261.311 180.923 265.73C178.316 261.311 175.677 256.91 173.128 252.525L145.142 203.997L173.127 252.525ZM15.1996 258.9C15.1959 258.893 15.1925 258.885 15.1888 258.878C15.1613 258.824 15.1323 258.77 15.1058 258.716C15.1359 258.778 15.1689 258.839 15.1996 258.9ZM496.87 234.123C496.801 234.057 496.729 233.994 496.655 233.934C496.729 233.994 496.801 234.057 496.87 234.123ZM27.725 222.25C27.3462 222.56 26.9698 222.872 26.598 223.188C27.2157 222.663 27.8434 222.146 28.4808 221.639C28.227 221.841 27.9757 222.045 27.725 222.25ZM74.4506 198.892C73.3592 199.263 72.2608 199.643 71.1576 200.03L72.809 199.455C73.3579 199.265 73.9051 199.078 74.4506 198.893V198.892ZM124.325 170.413C125.387 172.257 126.453 174.1 127.52 175.941C126.363 173.944 125.208 171.946 124.056 169.946L124.325 170.413Z" fill="#06CB85"/>
</svg>
